<?xml version="1.0" encoding="UTF-8"?>
<svg xmlns="http://www.w3.org/2000/svg" xmlns:xlink="http://www.w3.org/1999/xlink" width="192pt" height="192pt" viewBox="0 0 192 192" version="1.1">
<g id="surface1">
<path style=" stroke:none;fill-rule:nonzero;fill:rgb(0%,0%,0%);fill-opacity:1;" d="M 111.417969 191.855469 C 107.242188 191.753906 103.117188 191.105469 98.964844 190.765625 C 94.199219 190.421875 87.167969 188.558594 84.472656 186.921875 C 80.964844 184.789062 80.234375 183.078125 78.824219 173.675781 C 78.34375 170.476562 75.449219 160.398438 73.832031 156.296875 C 73.4375 155.292969 72.796875 153.152344 71.277344 147.746094 C 69.519531 141.496094 67.738281 132.851562 66.976562 126.917969 C 66.605469 124.019531 66.160156 122.605469 65.746094 123.003906 C 65.582031 123.160156 65.59375 123.890625 65.777344 124.882812 C 65.945312 125.773438 66.285156 127.871094 66.539062 129.539062 C 66.792969 131.207031 67.242188 133.503906 67.539062 134.644531 C 68.480469 138.390625 69.152344 142.195312 70.054688 145.953125 C 70.65625 148.339844 73.890625 158.667969 75.503906 163.355469 C 77.363281 168.753906 78.480469 173.085938 79.003906 176.933594 C 79.253906 178.785156 79.644531 181.132812 79.867188 182.152344 C 80.269531 183.980469 80.191406 184.792969 79.582031 185.191406 C 75.894531 186.691406 71.789062 186.726562 67.875 187.34375 C 65.328125 187.765625 57.222656 188.292969 53.5 188.277344 C 49.058594 188.449219 44.765625 187.617188 40.464844 186.757812 C 37.214844 186.128906 34.757812 185.003906 32.96875 183.324219 C 31.003906 181.484375 29.667969 179.199219 29.121094 176.746094 C 28.269531 172.910156 29.257812 169.78125 32.371094 166.449219 C 35.511719 163.089844 39.03125 161.777344 44.191406 162.039062 C 48.433594 161.433594 52.242188 163.960938 56.273438 164.285156 C 56.625 164.074219 56.410156 160.535156 55.910156 158.367188 C 55.535156 156.746094 53.988281 144.019531 53.914062 141.953125 C 53.859375 140.457031 53.335938 133.421875 53.210938 132.484375 C 52.972656 130.449219 52.847656 128.402344 52.628906 126.367188 C 52.441406 124.789062 52.359375 119.230469 52.472656 116.105469 C 52.554688 113.757812 52.535156 113.679688 51.5625 112.382812 C 49.023438 109 48.355469 104.886719 49.558594 100.089844 C 50.34375 96.972656 50.855469 95.6875 52.085938 93.757812 C 53.144531 92.101562 56.605469 88.605469 57.828125 87.957031 C 60.441406 86.410156 63.0625 84.761719 66.023438 83.886719 C 66.9375 83.878906 66.082031 83.304688 62.121094 81.257812 C 56.542969 78.382812 54.1875 76.902344 51.761719 74.753906 C 46.707031 70.273438 44.445312 67.800781 41.492188 63.503906 C 40.339844 61.835938 39.183594 60.425781 38.921875 60.371094 C 38.476562 60.28125 34.808594 61.421875 31.652344 62.625 C 29.691406 63.375 24.496094 64.792969 21.644531 65.363281 C 15.53125 66.578125 10.472656 66.210938 8.292969 64.390625 C 7.476562 63.710938 6.929688 62.019531 7.167969 60.917969 C 7.546875 59.160156 9.390625 56.992188 11.21875 56.152344 C 12.082031 55.753906 15.699219 54.730469 17.230469 54.449219 C 18.285156 54.257812 18.546875 53.816406 17.609375 53.816406 C 15.988281 53.816406 13.933594 54.433594 10.640625 55.917969 C 9.097656 56.609375 7.328125 58.332031 6.421875 60.023438 C 5.757812 61.265625 5.578125 61.410156 4.597656 61.488281 C 3.214844 61.597656 1.144531 60.496094 0.703125 59.414062 C -0.433594 56.628906 -0.25 55.542969 1.695312 53.539062 C 3.425781 51.757812 7.683594 49.335938 11.074219 48.210938 C 11.3125 48.132812 11.050781 48.054688 10.492188 48.042969 C 8.945312 48.128906 7.628906 48.992188 6.222656 49.523438 C 5.644531 49.695312 5.570312 49.621094 5.570312 48.855469 C 5.570312 48.152344 5.957031 47.636719 7.695312 46.007812 C 9.46875 44.351562 10.289062 43.820312 12.671875 42.804688 C 16.203125 41.292969 19.738281 40.023438 20.417969 40.023438 C 22.011719 39.671875 23.507812 39 25.117188 38.625 C 27.023438 38.226562 32.015625 36.476562 32.792969 35.929688 C 33.191406 35.648438 33.6875 35.089844 33.898438 34.683594 C 34.226562 34.039062 34.195312 33.738281 33.648438 32.363281 C 33.226562 31.300781 33.007812 30.097656 32.988281 28.710938 C 32.941406 25.777344 33.882812 24.171875 36.695312 22.394531 C 39.144531 20.847656 40.292969 20.445312 42.386719 20.402344 C 44.714844 20.351562 46.132812 21.183594 46.902344 23.058594 C 47.371094 24.195312 47.40625 24.875 47.148438 27.796875 C 46.988281 29.601562 47.027344 30.632812 47.289062 31.382812 C 47.621094 32.34375 48.980469 33.964844 50.683594 35.429688 C 51.660156 36.269531 52.601562 39.460938 52.382812 41.199219 C 52.222656 42.503906 52.324219 42.816406 53.949219 45.929688 C 55.765625 49.417969 56.726562 50.996094 58.238281 52.984375 L 59.144531 54.175781 C 59.195312 53.277344 59.222656 52.382812 59.183594 51.488281 C 59.046875 46.941406 60.355469 42.5625 62.050781 38.367188 C 62.5625 37.082031 63.730469 35.4375 66.261719 32.4375 C 68.589844 29.675781 68.949219 29.292969 70.664062 27.828125 C 71.320312 27.269531 72.195312 26.121094 72.613281 25.285156 C 73.480469 23.539062 75.855469 21.386719 77.226562 21.101562 C 78 20.941406 78.605469 20.578125 80.226562 19.304688 C 81.429688 18.535156 82.683594 17.839844 83.90625 17.09375 C 85.585938 15.9375 87.53125 15.289062 89.40625 14.503906 C 91.175781 13.753906 93.011719 13.144531 94.835938 12.699219 C 97.765625 11.925781 93.777344 11.765625 95.167969 9.214844 L 96.714844 7.363281 L 98.5625 8.125 C 102.757812 9.855469 103.347656 10.039062 104.152344 9.847656 C 106.351562 8.898438 108.242188 7.253906 110.125 5.820312 C 112.359375 4.183594 114.488281 2.40625 116.894531 0.988281 L 118.304688 0.199219 L 118.046875 2.523438 C 117.902344 3.804688 117.820312 6.339844 117.855469 8.160156 C 117.933594 11.90625 118.070312 12.15625 120.351562 12.738281 C 121.414062 13.007812 122.007812 13.207031 124.449219 14.089844 C 126.507812 14.839844 130.398438 16.796875 132.324219 18.050781 C 134.816406 19.390625 137.019531 21.058594 139.234375 22.769531 L 144.429688 27.371094 L 146.601562 27.238281 C 151.660156 26.585938 156.710938 25.675781 161.660156 24.472656 C 164.667969 23.691406 168.070312 22.917969 168.484375 22.917969 C 168.714844 22.917969 168.902344 23.101562 168.902344 23.328125 C 168.902344 23.550781 167.15625 27.121094 165.027344 31.257812 C 162.445312 36 160.1875 40.855469 158.519531 45.953125 C 155.671875 55.015625 155.007812 58.808594 154.902344 66.632812 L 154.855469 70.207031 C 152.117188 71.804688 149.074219 72.703125 146.335938 74.3125 L 145.058594 75.144531 C 145.742188 75.738281 146.417969 76.335938 147.21875 76.78125 C 148.003906 77.824219 144.242188 77.722656 143.710938 77.742188 C 140.265625 77.589844 137.332031 79.261719 134.222656 80.414062 C 129.742188 82.035156 131.484375 81.992188 145.347656 80.136719 C 153.789062 79.007812 157.277344 78.273438 157.765625 77.519531 C 158.109375 76.988281 160.148438 76.207031 163.042969 75.496094 C 168.394531 74.1875 171.382812 72.464844 175.191406 68.511719 C 176.570312 66.875 178.269531 65.757812 180.203125 64.855469 C 183.398438 63.34375 186.234375 65.207031 187.320312 69.535156 C 187.851562 71.640625 187.820312 74.089844 187.253906 75.226562 C 186.582031 76.582031 185.496094 77.199219 182.265625 78.078125 C 178.765625 79.03125 176.769531 79.851562 176.535156 80.4375 C 176.296875 81.027344 177.230469 81.933594 179.730469 83.539062 C 181.574219 84.722656 186.414062 89.039062 187.867188 90.800781 C 190.660156 94.179688 192.320312 98.003906 191.925781 100.148438 C 191.550781 102.183594 191.164062 102.039062 188.808594 98.980469 C 187.730469 97.582031 185.933594 95.503906 184.8125 94.367188 C 183.238281 92.769531 183.417969 93.023438 185.613281 95.5 C 187.171875 97.261719 189.089844 99.71875 189.875 100.964844 C 191.15625 103 191.296875 103.382812 191.257812 104.753906 C 191.136719 107.421875 189.914062 109.722656 187.050781 110.089844 C 186.410156 110.089844 186.34375 109.957031 186.195312 108.398438 C 186.027344 106.625 184.703125 103.753906 183.945312 103.511719 C 183.664062 103.421875 183.710938 103.621094 184.097656 104.1875 C 186.730469 107.984375 186.554688 110.582031 183.578125 111.902344 C 176.933594 114.207031 172.132812 108.933594 167.15625 105.652344 C 162.214844 102.320312 156.410156 99.582031 152.683594 94.875 C 152.683594 94.5625 151.136719 94.582031 150.308594 94.898438 C 147.300781 95.625 144.289062 96.386719 141.246094 96.960938 C 138.558594 97.425781 135.835938 97.679688 133.136719 98.058594 C 128.558594 98.75 122.960938 99.066406 115.472656 99.054688 C 108.105469 99.042969 104.511719 98.796875 100.847656 98.0625 C 97.226562 97.339844 96.765625 97.441406 94.246094 99.519531 C 93.019531 100.53125 91.90625 101.53125 91.773438 101.742188 C 92.082031 104.488281 92.554688 107.25 92.1875 110.082031 C 91.601562 112.679688 89.550781 116.390625 87.710938 118.179688 C 86.164062 119.6875 86.070312 119.851562 86.234375 120.800781 C 86.75 123.757812 91.375 138.207031 92.738281 141.125 C 94.621094 145.640625 96.015625 150.324219 97.921875 154.832031 C 99.371094 157.84375 100.570312 160.644531 100.84375 161.664062 C 101.191406 162.949219 102.65625 166.835938 103.191406 167.882812 C 103.695312 168.875 103.191406 168.859375 112.203125 168.175781 C 116.851562 167.625 121.492188 167.640625 125.898438 169.253906 C 127.992188 170.136719 130.164062 172.277344 131.359375 174.644531 C 132.179688 176.265625 132.265625 176.6875 132.265625 179.058594 C 132.265625 181.382812 132.171875 181.863281 131.429688 183.332031 C 130.273438 185.605469 128.390625 187.824219 126.621094 188.992188 C 125.558594 189.945312 124.359375 190.476562 123.0625 191.039062 C 121.957031 191.71875 114.046875 192.273438 111.417969 191.855469 Z M 106.929688 159.042969 C 102.988281 158.234375 99.914062 156.648438 98.671875 154.777344 C 97.972656 153.71875 96.636719 150.503906 94.273438 144.160156 C 92.699219 139.941406 88.570312 127.308594 88.84375 127.046875 C 89.089844 126.8125 89.753906 127.519531 90.335938 128.605469 C 90.804688 129.480469 94.898438 135.074219 96.503906 137.261719 C 98.390625 139.835938 102.554688 142.226562 105.96875 142.695312 C 109.441406 143.171875 111.742188 142.832031 113.847656 141.535156 C 115.984375 140.222656 116.289062 139.78125 117.0625 136.875 C 117.917969 133.664062 119.632812 131.753906 123 130.265625 C 124.535156 129.589844 127.613281 129.195312 129.484375 129.441406 C 133.164062 129.917969 136.945312 132.597656 138.042969 135.5 C 138.777344 137.453125 138.535156 141.425781 137.507812 144.257812 C 136.324219 147.511719 132.9375 151.957031 130.089844 153.984375 C 127.058594 156.148438 121.214844 158.128906 115.179688 159.042969 C 111.734375 159.5625 109.476562 159.5625 106.929688 159.042969 Z M 106.929688 159.042969 "/>
<path style=" stroke:none;fill-rule:nonzero;fill:rgb(100%,100%,100%);fill-opacity:1;" d="M 103.628906 13.035156 C 101.347656 13.089844 93.714844 14.996094 90.480469 16.320312 L 88.445312 17.15625 L 89.753906 18.371094 C 90.710938 19.261719 91.058594 19.9375 91.058594 20.914062 C 91.058594 21.648438 90.871094 22.25 90.640625 22.25 C 90.414062 22.25 90.226562 22.0625 90.226562 21.835938 C 90.226562 21.609375 89.769531 20.988281 89.210938 20.457031 C 88.101562 19.398438 86.597656 19.230469 84.515625 19.921875 L 83.222656 20.34375 L 86 23.035156 C 87.527344 24.511719 88.953125 25.738281 89.160156 25.757812 C 89.363281 25.78125 91.78125 24.410156 94.535156 22.714844 C 97.285156 21.023438 100.214844 19.25 101.039062 18.777344 C 103.113281 17.582031 106.039062 14.472656 105.863281 13.65625 C 105.75 13.121094 105.292969 12.996094 103.628906 13.035156 Z M 118.769531 16.035156 C 118.058594 16.0625 117.296875 16.160156 116.289062 16.320312 C 110.523438 17.226562 101.066406 21.074219 93.992188 25.398438 C 90.222656 27.699219 89.40625 28.585938 89.402344 30.320312 C 89.398438 33.28125 86.445312 35.644531 82.75 35.648438 C 79.304688 35.648438 76.871094 34.683594 74.054688 32.199219 C 71.613281 30.046875 71.585938 30.03125 70.734375 30.765625 C 69.117188 32.15625 65.851562 36.308594 64.777344 38.34375 C 63.496094 40.777344 61.695312 48.066406 61.691406 50.820312 C 61.691406 55.027344 64.421875 62.996094 67.675781 68.285156 C 71.160156 73.949219 75.203125 77.46875 80.433594 79.386719 C 85.855469 81.378906 94.804688 83.398438 100.363281 83.886719 C 101.273438 83.96875 104.066406 83.949219 106.570312 83.851562 C 117.703125 83.425781 131.9375 80.058594 138.652344 76.257812 C 145.382812 72.449219 150.21875 64.539062 150.21875 57.328125 C 150.21875 54.554688 149.667969 53.371094 147.457031 51.335938 C 144.257812 48.394531 139.144531 46.875 131.183594 46.492188 C 122.460938 46.070312 114.921875 43.761719 111.746094 40.542969 C 110.949219 39.734375 110.574219 39.175781 110.914062 39.300781 C 111.253906 39.425781 113.117188 40.160156 115.050781 40.929688 C 118.355469 42.246094 118.847656 42.339844 123.148438 42.34375 C 128.390625 42.351562 130.882812 41.785156 133.808594 39.941406 C 136.152344 38.460938 138.453125 35.726562 139.113281 33.621094 C 140.207031 30.144531 137.441406 24.707031 132.742188 21.085938 C 129.179688 18.339844 126.90625 17.28125 122.914062 16.507812 C 121.011719 16.140625 119.953125 15.992188 118.769531 16.035156 Z M 119.4375 30.714844 C 122.453125 33.5625 123.832031 35.921875 123.65625 37.914062 C 123.476562 39.929688 122.582031 40.019531 122.253906 38.050781 C 121.753906 35.082031 118.035156 31.617188 112.589844 29.035156 C 108.195312 26.214844 103.039062 27.199219 98.089844 27.277344 C 98.089844 26.664062 101.1875 25.800781 104.226562 25.558594 C 110.046875 24.898438 115.125 27.171875 119.4375 30.714844 Z M 70.960938 35.878906 C 72.324219 39.46875 73.355469 40.808594 77.53125 44.429688 C 82.058594 48.363281 83.789062 49.511719 89.457031 52.363281 C 94.265625 54.78125 97.550781 55.878906 106.324219 58.007812 C 111.972656 59.378906 112.75 59.472656 118.363281 59.449219 C 124.445312 59.421875 127.386719 58.921875 131.691406 57.199219 L 133.230469 56.585938 L 132.839844 51.214844 L 133.628906 53.492188 C 134.648438 56.445312 135.9375 58.007812 139.449219 60.558594 C 141.019531 61.703125 142.324219 62.777344 142.335938 62.941406 C 142.386719 63.585938 140.84375 63.164062 138.308594 61.835938 C 136.839844 61.066406 135.589844 60.488281 135.53125 60.550781 C 135.46875 60.617188 134.070312 62.847656 132.425781 65.507812 C 128.214844 72.320312 124.8125 75.703125 119.863281 78.007812 C 117.1875 79.253906 114.996094 79.957031 112.363281 80.398438 C 110.3125 80.738281 105.480469 81.089844 101.609375 81.179688 C 95.824219 81.320312 93.914062 81.222656 90.851562 80.613281 C 81.417969 78.730469 78.929688 77.703125 75.753906 74.398438 C 72.007812 70.488281 69.867188 65.574219 69.113281 59.128906 C 68.578125 54.558594 69.035156 51.039062 70.796875 46.078125 L 71.980469 42.734375 L 70.714844 40.15625 C 69.476562 37.628906 68.917969 34.109375 69.691406 33.679688 C 70.074219 33.671875 70.652344 35.128906 70.960938 35.878906 Z M 78.027344 69.484375 C 75.460938 70.59375 75.164062 71.144531 76.273438 72.699219 C 78.601562 75.972656 85.792969 79.015625 93.875 80.148438 C 97.683594 80.679688 103.398438 80.617188 107.449219 79.992188 C 112.25 79.25 112.570312 79.117188 112.570312 77.929688 C 112.570312 76.175781 111.25 74.675781 108.640625 73.464844 C 104.457031 71.523438 101.558594 71.019531 95.449219 71.191406 C 90.476562 71.328125 89.753906 71.449219 86.761719 72.621094 C 84.964844 73.324219 83.378906 73.789062 83.238281 73.65625 C 83.003906 73.429688 84.015625 72.511719 85.828125 71.300781 C 86.792969 70.65625 86.398438 70.015625 84.605469 69.300781 C 82.46875 68.5 80.132812 68.695312 78.027344 69.484375 Z M 78.027344 69.484375 "/>
</g>
</svg>
