<?xml version="1.0" encoding="UTF-8"?>
<svg xmlns="http://www.w3.org/2000/svg" xmlns:xlink="http://www.w3.org/1999/xlink" width="512pt" height="512pt" viewBox="0 0 512 512" version="1.1">
<g id="surface1">
<path style=" stroke:none;fill-rule:nonzero;fill:rgb(0%,0%,0%);fill-opacity:1;" d="M 297.109375 511.613281 C 285.972656 511.34375 274.980469 509.613281 263.90625 508.703125 C 251.191406 507.796875 232.449219 502.824219 225.265625 498.460938 C 215.90625 492.773438 213.960938 488.207031 210.199219 463.140625 C 208.917969 454.601562 201.199219 427.734375 196.886719 416.796875 C 195.828125 414.117188 194.121094 408.402344 190.074219 393.992188 C 185.390625 377.324219 180.628906 354.265625 178.609375 338.449219 C 177.621094 330.71875 176.433594 326.953125 175.316406 328.015625 C 174.882812 328.429688 174.917969 330.375 175.40625 333.019531 C 175.847656 335.398438 176.761719 340.988281 177.4375 345.4375 C 178.113281 349.890625 179.3125 356.015625 180.101562 359.046875 C 182.613281 369.046875 184.40625 379.191406 186.808594 389.210938 C 188.414062 395.570312 197.042969 423.121094 201.347656 435.617188 C 206.304688 450.007812 209.28125 461.566406 210.675781 471.824219 C 211.34375 476.757812 212.382812 483.019531 212.976562 485.738281 C 214.046875 490.613281 213.84375 492.78125 212.21875 493.84375 C 202.378906 497.84375 191.441406 497.941406 180.996094 499.582031 C 174.203125 500.710938 152.59375 502.113281 142.660156 502.066406 C 130.828125 502.527344 119.371094 500.3125 107.910156 498.019531 C 99.238281 496.34375 92.691406 493.347656 87.914062 488.867188 C 82.679688 483.960938 79.117188 477.867188 77.660156 471.324219 C 75.382812 461.097656 78.015625 452.75 86.324219 443.863281 C 94.699219 434.910156 104.082031 431.410156 117.847656 432.105469 C 129.160156 430.488281 139.3125 437.230469 150.058594 438.09375 C 151.003906 437.535156 150.429688 428.097656 149.097656 422.3125 C 148.097656 417.984375 143.972656 384.054688 143.773438 378.542969 C 143.628906 374.554688 142.230469 355.792969 141.894531 353.289062 C 141.261719 347.863281 140.929688 342.410156 140.339844 336.980469 C 139.847656 332.773438 139.621094 317.945312 139.921875 309.617188 C 140.148438 303.359375 140.097656 303.148438 137.5 299.6875 C 130.730469 290.664062 128.945312 279.699219 132.160156 266.90625 C 134.25 258.589844 135.617188 255.164062 138.894531 250.023438 C 141.714844 245.601562 150.941406 236.277344 154.210938 234.550781 C 161.179688 230.425781 168.164062 226.03125 176.0625 223.699219 C 178.503906 223.679688 176.21875 222.140625 165.652344 216.6875 C 150.785156 209.015625 144.503906 205.070312 138.03125 199.339844 C 124.546875 187.402344 118.519531 180.796875 110.640625 169.347656 C 107.578125 164.890625 104.492188 161.128906 103.785156 160.992188 C 102.605469 160.753906 92.824219 163.785156 84.410156 166.996094 C 79.171875 168.996094 65.320312 172.785156 57.714844 174.296875 C 41.417969 177.542969 27.925781 176.5625 22.117188 171.710938 C 19.933594 169.890625 18.476562 165.386719 19.113281 162.449219 C 20.125 157.765625 25.046875 151.976562 29.914062 149.738281 C 32.214844 148.679688 41.867188 145.949219 45.945312 145.199219 C 48.757812 144.6875 49.460938 143.507812 46.960938 143.507812 C 42.636719 143.507812 37.160156 145.160156 28.375 149.109375 C 24.257812 150.960938 19.542969 155.550781 17.128906 160.058594 C 15.351562 163.378906 14.875 163.761719 12.261719 163.96875 C 8.570312 164.261719 3.054688 161.320312 1.871094 158.433594 C -1.160156 151.011719 -0.667969 148.117188 4.523438 142.769531 C 9.140625 138.019531 20.492188 131.566406 29.527344 128.5625 C 30.164062 128.347656 29.464844 128.148438 27.976562 128.117188 C 23.847656 128.34375 20.34375 130.644531 16.59375 132.058594 C 15.046875 132.515625 14.855469 132.320312 14.855469 130.28125 C 14.855469 128.40625 15.882812 127.027344 20.519531 122.691406 C 25.246094 118.269531 27.4375 116.855469 33.789062 114.140625 C 43.203125 110.117188 52.636719 106.734375 54.441406 106.730469 C 58.695312 105.789062 62.691406 104 66.980469 103 C 72.058594 101.941406 85.371094 97.265625 87.445312 95.8125 C 88.507812 95.066406 89.832031 93.570312 90.390625 92.484375 C 91.273438 90.769531 91.1875 89.96875 89.730469 86.296875 C 88.605469 83.472656 88.027344 80.265625 87.964844 76.566406 C 87.839844 68.738281 90.355469 64.453125 97.851562 59.722656 C 104.382812 55.597656 107.449219 54.523438 113.027344 54.402344 C 119.242188 54.265625 123.015625 56.484375 125.074219 61.484375 C 126.328125 64.519531 126.417969 66.328125 125.730469 74.125 C 125.300781 78.941406 125.410156 81.683594 126.101562 83.6875 C 126.984375 86.246094 130.613281 90.570312 135.160156 94.484375 C 137.761719 96.722656 140.269531 105.230469 139.691406 109.863281 C 139.257812 113.347656 139.535156 114.175781 143.863281 122.480469 C 148.714844 131.777344 151.273438 135.984375 155.304688 141.289062 L 157.71875 144.464844 C 157.851562 142.078125 157.925781 139.691406 157.824219 137.300781 C 157.460938 125.179688 160.949219 113.496094 165.464844 102.3125 C 166.832031 98.890625 169.945312 94.503906 176.695312 86.496094 C 182.902344 79.128906 183.867188 78.117188 188.4375 74.210938 C 190.183594 72.714844 192.527344 69.660156 193.636719 67.425781 C 195.949219 62.769531 202.28125 57.027344 205.9375 56.269531 C 208 55.839844 209.609375 54.875 213.9375 51.480469 C 217.144531 49.425781 220.496094 47.578125 223.746094 45.585938 C 228.230469 42.503906 233.410156 40.769531 238.421875 38.679688 C 243.136719 36.675781 248.035156 35.046875 252.898438 33.863281 C 260.707031 31.800781 250.070312 31.375 253.78125 24.578125 L 257.910156 19.632812 L 262.835938 21.667969 C 274.019531 26.285156 275.59375 26.769531 277.734375 26.257812 C 283.601562 23.726562 288.644531 19.339844 293.664062 15.519531 C 299.628906 11.152344 305.300781 6.414062 311.714844 2.632812 L 315.484375 0.53125 L 314.792969 6.730469 C 314.410156 10.144531 314.183594 16.90625 314.285156 21.761719 C 314.492188 31.746094 314.859375 32.414062 320.933594 33.96875 C 323.765625 34.691406 325.351562 35.214844 331.863281 37.578125 C 337.355469 39.570312 347.730469 44.785156 352.859375 48.128906 C 359.511719 51.710938 365.382812 56.160156 371.292969 60.714844 L 385.148438 72.992188 L 390.9375 72.640625 C 404.421875 70.898438 417.898438 68.464844 431.097656 65.257812 C 439.117188 63.179688 448.183594 61.117188 449.292969 61.117188 C 449.902344 61.117188 450.402344 61.609375 450.402344 62.207031 C 450.402344 62.804688 445.753906 72.324219 440.070312 83.355469 C 433.191406 96 427.167969 108.953125 422.722656 122.542969 C 415.125 146.710938 413.355469 156.820312 413.074219 177.683594 L 412.949219 187.214844 C 405.644531 191.476562 397.535156 193.878906 390.234375 198.160156 L 386.828125 200.386719 C 388.644531 201.96875 390.453125 203.558594 392.582031 204.75 C 394.679688 207.527344 384.644531 207.253906 383.230469 207.316406 C 374.039062 206.902344 366.214844 211.367188 357.929688 214.441406 C 345.976562 218.757812 350.628906 218.640625 387.589844 213.695312 C 410.105469 210.683594 419.40625 208.722656 420.707031 206.714844 C 421.628906 205.296875 427.058594 203.21875 434.785156 201.324219 C 449.046875 197.832031 457.023438 193.246094 467.179688 182.695312 C 470.855469 178.328125 475.382812 175.355469 480.546875 172.945312 C 489.0625 168.910156 496.625 173.882812 499.523438 185.421875 C 500.933594 191.042969 500.859375 197.566406 499.34375 200.605469 C 497.546875 204.214844 494.65625 205.867188 486.039062 208.210938 C 476.703125 210.753906 471.386719 212.941406 470.761719 214.496094 C 470.125 216.074219 472.609375 218.488281 479.277344 222.769531 C 484.199219 225.929688 497.097656 237.441406 500.984375 242.140625 C 508.429688 251.144531 512.859375 261.347656 511.800781 267.066406 C 510.796875 272.488281 509.765625 272.101562 503.484375 263.945312 C 500.613281 260.214844 495.820312 254.679688 492.832031 251.644531 C 488.632812 247.382812 489.117188 248.066406 494.964844 254.667969 C 499.125 259.363281 504.242188 265.921875 506.332031 269.242188 C 509.753906 274.671875 510.125 275.6875 510.023438 279.347656 C 509.695312 286.453125 506.441406 292.589844 498.800781 293.578125 C 497.097656 293.578125 496.917969 293.21875 496.523438 289.066406 C 496.070312 284.335938 492.546875 276.675781 490.523438 276.03125 C 489.769531 275.792969 489.890625 276.328125 490.933594 277.832031 C 497.949219 287.960938 497.484375 294.886719 489.542969 298.40625 C 471.820312 304.554688 459.019531 290.484375 445.75 281.734375 C 432.574219 272.847656 417.097656 265.554688 407.15625 252.996094 C 407.15625 252.171875 403.03125 252.214844 400.820312 253.0625 C 392.808594 254.996094 384.769531 257.03125 376.652344 258.566406 C 369.484375 259.804688 362.230469 260.476562 355.03125 261.492188 C 342.820312 263.332031 327.898438 264.171875 307.921875 264.140625 C 288.285156 264.109375 278.699219 263.460938 268.925781 261.503906 C 259.273438 259.570312 258.039062 259.84375 251.324219 265.386719 C 248.050781 268.085938 245.082031 270.753906 244.730469 271.308594 C 245.546875 278.628906 246.808594 286.003906 245.832031 293.554688 C 244.273438 300.480469 238.808594 310.371094 233.894531 315.152344 C 229.773438 319.164062 229.523438 319.609375 229.960938 322.140625 C 231.332031 330.015625 243.664062 368.550781 247.308594 376.335938 C 252.320312 388.378906 256.042969 400.863281 261.121094 412.882812 C 264.988281 420.914062 268.1875 428.390625 268.917969 431.101562 C 269.84375 434.535156 273.75 444.890625 275.175781 447.691406 C 276.519531 450.332031 275.175781 450.289062 299.210938 448.472656 C 311.601562 447 323.972656 447.039062 335.730469 451.339844 C 341.316406 453.695312 347.097656 459.402344 350.292969 465.714844 C 352.484375 470.042969 352.710938 471.160156 352.710938 477.484375 C 352.710938 483.691406 352.460938 484.96875 350.472656 488.886719 C 347.398438 494.949219 342.375 500.867188 337.652344 503.984375 C 334.828125 506.519531 331.621094 507.933594 328.167969 509.433594 C 325.21875 511.25 304.128906 512.730469 297.109375 511.613281 Z M 285.140625 424.113281 C 274.628906 421.964844 266.433594 417.730469 263.128906 412.746094 C 261.257812 409.921875 257.703125 401.34375 251.390625 384.425781 C 247.195312 373.179688 236.183594 339.488281 236.914062 338.792969 C 237.574219 338.164062 239.339844 340.050781 240.894531 342.945312 C 242.148438 345.277344 253.066406 360.203125 257.339844 366.027344 C 262.378906 372.894531 273.480469 379.265625 282.582031 380.515625 C 291.847656 381.789062 297.980469 380.886719 303.59375 377.429688 C 309.292969 373.921875 310.101562 372.75 312.164062 365.003906 C 314.441406 356.433594 319.019531 351.34375 328 347.375 C 332.09375 345.566406 340.304688 344.523438 345.292969 345.171875 C 355.109375 346.449219 365.191406 353.589844 368.113281 361.332031 C 370.078125 366.539062 369.429688 377.128906 366.6875 384.683594 C 363.53125 393.367188 354.5 405.214844 346.902344 410.628906 C 338.820312 416.390625 323.238281 421.675781 307.148438 424.109375 C 297.957031 425.5 291.9375 425.5 285.140625 424.113281 Z M 285.140625 424.113281 "/>
<path style=" stroke:none;fill-rule:nonzero;fill:rgb(100%,100%,100%);fill-opacity:1;" d="M 276.34375 34.757812 C 270.257812 34.902344 249.910156 39.988281 241.277344 43.515625 L 235.847656 45.746094 L 239.347656 48.988281 C 241.898438 51.363281 242.824219 53.167969 242.824219 55.769531 C 242.824219 57.722656 242.320312 59.332031 241.714844 59.332031 C 241.105469 59.332031 240.601562 58.835938 240.601562 58.230469 C 240.601562 57.625 239.390625 55.96875 237.902344 54.550781 C 234.941406 51.730469 230.925781 51.285156 225.375 53.125 L 221.925781 54.253906 L 229.332031 61.425781 C 233.40625 65.363281 237.207031 68.632812 237.753906 68.691406 C 238.304688 68.75 244.753906 65.089844 252.089844 60.574219 C 259.429688 56.058594 267.238281 51.335938 269.441406 50.070312 C 274.964844 46.886719 282.773438 38.59375 282.304688 36.414062 C 282 34.992188 280.78125 34.652344 276.34375 34.757812 Z M 316.71875 42.757812 C 314.824219 42.828125 312.789062 43.09375 310.105469 43.515625 C 294.726562 45.941406 269.511719 56.195312 250.640625 67.722656 C 240.59375 73.863281 238.414062 76.230469 238.40625 80.851562 C 238.398438 88.753906 230.523438 95.050781 220.667969 95.058594 C 211.480469 95.0625 204.988281 92.484375 197.476562 85.863281 C 190.96875 80.121094 190.898438 80.085938 188.621094 82.046875 C 184.308594 85.753906 175.601562 96.828125 172.742188 102.253906 C 169.320312 108.738281 164.515625 128.179688 164.511719 135.515625 C 164.507812 146.742188 171.789062 167.988281 180.464844 182.09375 C 189.757812 197.199219 200.542969 206.585938 214.492188 211.699219 C 228.953125 217.003906 252.808594 222.398438 267.632812 223.699219 C 270.058594 223.914062 277.511719 223.867188 284.1875 223.609375 C 313.875 222.464844 351.835938 213.488281 369.738281 203.355469 C 387.691406 193.195312 400.578125 172.097656 400.578125 152.875 C 400.578125 145.480469 399.117188 142.320312 393.21875 136.898438 C 384.683594 129.054688 371.054688 125 349.828125 123.976562 C 326.558594 122.859375 306.460938 116.699219 297.992188 108.113281 C 295.867188 105.964844 294.859375 104.472656 295.769531 104.804688 C 296.679688 105.136719 301.640625 107.09375 306.800781 109.148438 C 315.613281 112.660156 316.921875 112.902344 328.398438 112.917969 C 342.378906 112.941406 349.023438 111.429688 356.828125 106.503906 C 363.070312 102.566406 369.203125 95.265625 370.96875 89.65625 C 373.882812 80.390625 366.511719 65.890625 353.980469 56.230469 C 344.476562 48.90625 338.417969 46.082031 327.769531 44.023438 C 322.699219 43.042969 319.875 42.640625 316.71875 42.757812 Z M 318.503906 81.90625 C 326.542969 89.503906 330.222656 95.789062 329.75 101.101562 C 329.269531 106.484375 326.890625 106.714844 326.007812 101.472656 C 324.679688 93.550781 314.761719 84.3125 300.234375 77.425781 C 288.523438 69.902344 274.765625 72.53125 261.574219 72.734375 C 261.574219 71.105469 269.828125 68.804688 277.9375 68.160156 C 293.457031 66.394531 307 72.460938 318.503906 81.90625 Z M 189.226562 95.679688 C 192.863281 105.246094 195.613281 108.824219 206.746094 118.484375 C 218.828125 128.96875 223.433594 132.03125 238.550781 139.632812 C 251.375 146.082031 260.140625 149.015625 283.535156 154.691406 C 298.589844 158.339844 300.667969 158.59375 315.632812 158.527344 C 331.851562 158.457031 339.699219 157.121094 351.179688 152.527344 L 355.28125 150.898438 L 354.246094 136.574219 L 356.34375 142.644531 C 359.0625 150.515625 362.5 154.691406 371.859375 161.496094 C 376.058594 164.542969 379.527344 167.40625 379.558594 167.839844 C 379.691406 169.566406 375.585938 168.441406 368.820312 164.898438 C 364.90625 162.847656 361.574219 161.300781 361.410156 161.472656 C 361.246094 161.644531 357.519531 167.597656 353.132812 174.691406 C 341.90625 192.855469 332.832031 201.878906 319.636719 208.023438 C 312.503906 211.34375 306.65625 213.214844 299.632812 214.390625 C 294.171875 215.304688 281.277344 216.238281 270.960938 216.484375 C 255.535156 216.847656 250.433594 216.59375 242.269531 214.964844 C 217.113281 209.949219 210.476562 207.210938 202.015625 198.390625 C 192.015625 187.96875 186.3125 174.867188 184.300781 157.679688 C 182.875 145.484375 184.09375 136.105469 188.789062 122.875 L 191.953125 113.953125 L 188.574219 107.082031 C 185.265625 100.347656 183.777344 90.960938 185.847656 89.816406 C 186.867188 89.792969 188.410156 93.675781 189.226562 95.679688 Z M 208.074219 185.289062 C 201.230469 188.25 200.4375 189.714844 203.390625 193.863281 C 209.605469 202.59375 228.785156 210.714844 250.328125 213.722656 C 260.484375 215.144531 275.726562 214.980469 286.527344 213.308594 C 299.335938 211.332031 300.1875 210.980469 300.1875 207.816406 C 300.1875 203.136719 296.667969 199.136719 289.714844 195.90625 C 278.554688 190.730469 270.824219 189.386719 254.527344 189.839844 C 241.269531 190.207031 239.34375 190.535156 231.359375 193.65625 C 226.574219 195.527344 222.34375 196.769531 221.972656 196.414062 C 221.347656 195.8125 224.046875 193.367188 228.875 190.136719 C 231.445312 188.417969 230.402344 186.707031 225.617188 184.804688 C 219.914062 182.667969 213.683594 183.183594 208.074219 185.289062 Z M 208.074219 185.289062 "/>
</g>
</svg>
